Jump_normalized_Motion_pl02
version=1
nRows=25
nColumns=43
inDegrees=yes
endheader
time		pelvis_tilt		pelvis_list		pelvis_rotation		pelvis_tx		pelvis_ty		pelvis_tz		hip_flexion_r		hip_adduction_r		hip_rotation_r		knee_angle_r		ankle_angle_r		subtalar_angle_r		mtp_angle_r		hip_flexion_l		hip_adduction_l		hip_rotation_l		knee_angle_l		ankle_angle_l		subtalar_angle_l		mtp_angle_l		lumbar_extension		lumbar_bending		lumbar_rotation		neck_flexion		neck_lateral_bending		neck_rotation		arm_flex_r		arm_add_r		arm_rot_r		elbow_flex_r		pro_sup_r		wrist_flex_r		wrist_dev_r		hand_finger_flex_r		arm_flex_l		arm_add_l		arm_rot_l		elbow_flex_l		pro_sup_l		wrist_flex_l		wrist_dev_l		hand_finger_flex_l		
0.495000		-1.515691		-21.934273		92.120794		0.024868		1.875790		1.634627		50.898100		-4.965929		3.161986		-112.161389		19.651382		3.934271		11.100034		52.576871		0.455695		5.234972		-112.105809		21.543043		-6.703345		9.076677		-39.370351		-2.039207		0.484743		26.282442		2.338908		-2.575629		127.914848		-8.403377		30.927774		55.992027		65.843839		-31.078698		-4.328966		26.484999		125.079259		-0.973857		18.891959		66.622082		114.519527		-24.367889		13.785796		75.169664		
0.497348		-1.769947		-21.196853		91.945956		0.024859		1.878124		1.628941		49.613394		-5.165337		3.340417		-111.808737		18.985184		3.998193		12.480993		51.258929		0.502307		5.033350		-111.733823		20.790079		-6.621484		10.309540		-39.966029		-2.298005		0.399925		25.928739		2.435250		-2.525152		128.217807		-8.353848		31.042203		55.702373		65.610759		-30.967116		-5.025221		26.517233		125.439281		-1.014250		19.217917		66.401232		114.684156		-25.139793		13.640199		75.191426		
0.499697		-1.806229		-21.163998		91.909370		0.024773		1.879041		1.624044		49.233466		-5.281826		3.346531		-111.576822		18.235432		4.213417		12.600246		50.919153		0.456301		5.041602		-111.603639		19.929783		-6.314989		10.419994		-39.725412		-2.366728		0.453039		25.435116		2.468606		-2.538549		128.348876		-8.326103		31.022140		55.582597		65.579075		-30.998885		-5.061943		26.502456		125.554527		-0.941106		19.265357		66.298917		114.682784		-25.226210		13.656804		75.207111		
0.502045		-1.842117		-21.097241		91.876141		0.024677		1.879977		1.619067		48.819058		-5.388815		3.353062		-111.346679		17.466476		4.390761		12.640074		50.554738		0.419092		5.056119		-111.468362		19.050809		-6.021160		10.464352		-39.510389		-2.428555		0.504724		24.884706		2.499446		-2.564824		128.457669		-8.322237		31.044968		55.480744		65.590428		-31.012219		-5.102214		26.495823		125.661786		-0.892500		19.340280		66.175907		114.706135		-25.288383		13.670193		75.208001		
0.504394		-1.888891		-20.943325		91.834700		0.024564		1.881057		1.613970		48.309475		-5.501925		3.357847		-111.107849		16.635891		4.528923		12.693134		50.111254		0.395715		5.053311		-111.329630		18.118940		-5.757804		10.528677		-39.392733		-2.496966		0.556743		24.333643		2.544255		-2.606533		128.573571		-8.330987		31.101107		55.362457		65.626598		-31.007648		-5.192634		26.495284		125.776755		-0.856217		19.438334		66.027140		114.758507		-25.383782		13.666164		75.198145		
0.506742		-1.993019		-20.389916		91.784988		0.024468		1.882995		1.608490		47.338963		-5.658113		3.352157		-110.787863		15.618562		4.398175		13.112724		49.160915		0.399403		4.977702		-111.066558		17.081659		-5.801428		10.995175		-39.786491		-2.609324		0.585716		24.068506		2.618688		-2.695443		128.827678		-8.365086		31.199000		55.139296		65.739092		-30.959737		-5.609224		26.500438		126.014995		-0.760158		19.564805		65.799887		114.912544		-25.783492		13.530888		75.178431		
0.509091		-2.047607		-20.096588		91.750016		0.024300		1.884265		1.603199		46.687104		-5.785367		3.352899		-110.530209		14.759258		4.450209		13.321875		48.567872		0.363233		4.926850		-110.901977		16.085985		-5.658771		11.233723		-39.818271		-2.672307		0.644030		23.495827		2.655633		-2.752706		128.956752		-8.408893		31.331841		54.988011		65.794171		-30.921726		-5.756571		26.510254		126.124452		-0.741313		19.749304		65.625289		114.998204		-25.948503		13.483578		75.204971		
0.511439		-2.073224		-19.963965		91.732858		0.024141		1.885134		1.598055		46.261995		-5.917365		3.323482		-110.337307		13.906788		4.604336		13.336866		48.202010		0.281063		4.876093		-110.770673		15.081206		-5.408728		11.274284		-39.646818		-2.716087		0.729526		22.849967		2.684717		-2.801953		129.028452		-8.468023		31.446101		54.862369		65.824791		-30.906796		-5.760719		26.514400		126.160693		-0.722977		19.937254		65.493276		115.043319		-25.959015		13.490670		75.247858		
0.513788		-2.149423		-19.476874		91.677950		0.024039		1.886783		1.592580		45.422783		-6.034300		3.315099		-110.044434		12.823509		4.390602		13.708018		47.405696		0.243497		4.764629		-110.545260		13.856540		-5.604798		11.802029		-39.920842		-2.811152		0.799985		22.380114		2.731724		-2.913492		129.214773		-8.554757		31.655907		54.673387		65.927834		-30.872819		-6.003097		26.502230		126.303837		-0.665165		20.120812		65.261973		115.185676		-26.156664		13.365402		75.420301		
0.516136		-2.219598		-19.030664		91.621064		0.023922		1.888339		1.587168		44.655044		-6.136515		3.328185		-109.746682		11.678378		4.243541		14.037988		46.697116		0.213844		4.669911		-110.356411		12.580559		-5.726777		12.297684		-40.152121		-2.900351		0.866704		21.901483		2.788642		-3.025516		129.383015		-8.632362		31.858652		54.501266		66.019999		-30.844228		-6.206879		26.487771		126.433184		-0.620180		20.304104		65.032601		115.312002		-26.319005		13.258020		75.595390		
0.518485		-2.248055		-18.888949		91.601042		0.023786		1.889213		1.582086		44.293753		-6.235384		3.339892		-109.539485		10.570922		4.397012		13.982798		46.409770		0.145402		4.623297		-110.249330		11.373205		-5.461992		12.318123		-40.018630		-2.951476		0.943806		21.325877		2.852303		-3.104993		129.452591		-8.698797		31.979814		54.384500		66.066382		-30.842301		-6.201166		26.478868		126.470693		-0.595068		20.492711		64.875397		115.350994		-26.276587		13.275435		75.657794		
0.520833		-2.293410		-18.673174		91.571361		0.023734		1.890246		1.576945		43.863101		-6.310234		3.362355		-109.320536		9.366590		4.393003		13.907150		46.048661		0.085827		4.555622		-110.104582		10.066954		-5.337748		12.342218		-39.978607		-3.027737		1.014013		20.764458		2.924286		-3.209839		129.539704		-8.791169		32.150346		54.256348		66.155064		-30.839018		-6.234913		26.462014		126.531330		-0.564778		20.702280		64.681818		115.408957		-26.219259		13.278524		75.723808		
0.523182		-2.372152		-18.324656		91.509319		0.023774		1.891549		1.571697		43.303944		-6.395717		3.364906		-109.080633		8.019019		4.101522		13.844934		45.536776		0.033181		4.420542		-109.911464		8.623408		-5.520456		12.474649		-40.118807		-3.153447		1.088877		20.342605		3.009440		-3.342049		129.682506		-8.909507		32.361407		54.111143		66.306353		-30.853165		-6.348790		26.409374		126.642718		-0.505913		20.903228		64.456679		115.483262		-26.141786		13.230902		75.805552		
0.525530		-2.480643		-17.839274		91.430920		0.023790		1.893078		1.566347		42.610640		-6.510645		3.360004		-108.829179		6.569679		3.528923		13.824758		44.865940		-0.018241		4.199092		-109.674121		7.067453		-6.025981		12.776605		-40.439997		-3.306353		1.170950		20.056979		3.102247		-3.492642		129.882682		-9.052022		32.607572		53.949973		66.513388		-30.886379		-6.534646		26.311788		126.805175		-0.416317		21.096402		64.205197		115.568747		-26.036406		13.121758		75.904520		
0.527879		-2.521290		-17.616530		91.414375		0.023782		1.893948		1.561201		42.205166		-6.586225		3.375973		-108.621711		5.402577		3.619146		13.719436		44.563674		-0.085559		4.138676		-109.551406		5.687534		-5.823732		12.806256		-40.382952		-3.374938		1.218140		19.318181		3.158116		-3.579335		129.929658		-9.148304		32.835763		53.795567		66.590394		-30.870148		-6.480932		26.284820		126.821812		-0.431809		21.378106		63.994777		115.615121		-25.907015		13.126744		75.935308		
0.530227		-2.572297		-17.320560		91.409133		0.023765		1.895031		1.556061		41.760730		-6.661886		3.384738		-108.396691		3.948943		3.468501		13.571385		44.196670		-0.139503		4.048077		-109.385487		4.091385		-5.859693		12.872811		-40.462008		-3.449350		1.266825		18.818766		3.235837		-3.700236		130.043378		-9.275358		33.077932		53.653571		66.723213		-30.873833		-6.499035		26.220429		126.900839		-0.402096		21.628398		63.766757		115.648615		-25.748361		13.099513		75.929643		
0.532576		-2.659824		-16.789562		91.371547		0.023823		1.896595		1.550726		41.070117		-6.781364		3.294207		-108.113772		2.209759		2.568544		13.452203		43.548342		-0.179260		3.845313		-109.143047		2.225527		-6.745043		13.297954		-40.878416		-3.573853		1.333195		18.696096		3.330436		-3.881194		130.295165		-9.461729		33.414558		53.517294		66.985935		-30.916569		-6.660399		26.021244		127.104022		-0.306795		21.801671		63.505080		115.645835		-25.461469		12.942941		75.813022		
0.534924		-2.678611		-16.550579		91.389550		0.023808		1.897380		1.545580		40.696479		-6.823777		3.310093		-107.903792		0.937501		2.682487		13.323989		43.282661		-0.246441		3.810997		-109.026474		0.730687		-6.544978		13.352559		-40.840818		-3.609629		1.376750		17.907289		3.376098		-3.973482		130.334668		-9.574779		33.687742		53.350779		67.064097		-30.879353		-6.576599		25.977558		127.099986		-0.323552		22.114019		63.268240		115.679468		-25.272122		12.952279		75.769285		
0.537273		-2.695810		-16.097436		91.415870		0.023785		1.898723		1.540411		40.128188		-6.901222		3.179425		-107.616612		-0.910222		1.908906		13.213137		42.801877		-0.313274		3.692028		-108.827899		-1.247354		-7.357085		13.835940		-41.176009		-3.642953		1.461252		17.766815		3.443823		-4.155096		130.584653		-9.777976		34.059409		53.222062		67.281477		-30.857458		-6.676251		25.750797		127.259886		-0.243814		22.266963		63.039547		115.634514		-24.892685		12.821097		75.469962		
0.539621		-2.690210		-15.728000		91.451664		0.023766		1.899806		1.535253		39.655458		-6.939945		3.106435		-107.351480		-2.564681		1.536287		13.178641		42.428844		-0.398195		3.630194		-108.659256		-3.088544		-7.792885		14.380599		-41.363309		-3.647057		1.550447		17.359470		3.487865		-4.299790		130.740446		-9.947792		34.417465		53.079187		67.414262		-30.782197		-6.688770		25.534869		127.313527		-0.211387		22.451471		62.841734		115.600043		-24.482040		12.731327		75.116123		
0.541970		-2.672478		-15.263316		91.506441		0.023698		1.900968		1.529986		39.047462		-6.980013		3.019871		-107.051044		-4.132055		1.256073		14.169068		41.938463		-0.472144		3.604254		-108.455302		-5.195318		-8.528421		17.820621		-41.621689		-3.612515		1.638131		16.780963		3.446743		-4.414994		130.864550		-10.115417		34.809931		52.925233		67.377218		-30.416982		-6.677863		24.589045		127.288877		-0.203422		22.449635		62.679503		115.578500		-22.989186		12.441541		73.359070		
0.544318		-2.668950		-15.037343		91.522694		0.023670		1.901632		1.525065		38.799620		-6.997195		3.026045		-106.826755		-5.548112		1.247676		14.305474		41.771401		-0.551034		3.580314		-108.354144		-6.718007		-8.551558		18.660220		-41.631644		-3.634401		1.711193		16.177456		3.533174		-4.542837		130.980498		-10.270023		35.171484		52.744569		67.467961		-30.247621		-6.612918		24.360200		127.309712		-0.193532		22.678296		62.473560		115.608882		-22.507405		12.433035		72.910027		
0.546667		-2.646117		-14.847365		91.494631		0.023684		1.902309		1.520275		38.655200		-6.968595		3.003834		-106.595240		-7.170431		0.792069		14.159946		41.673517		-0.671024		3.482323		-108.250931		-8.255799		-8.970572		18.640683		-41.666253		-3.670957		1.873826		15.915158		3.585383		-4.721406		131.182089		-10.493443		35.605234		52.611359		67.698268		-30.148672		-6.626960		24.320442		127.369642		-0.128519		22.862188		62.282269		115.559651		-22.349574		12.501151		72.829413		
0.549015		-2.627255		-14.648093		91.473177		0.023651		1.902895		1.515448		38.497614		-6.954330		3.003210		-106.371905		-8.470985		0.625035		14.058214		41.567593		-0.773061		3.408456		-108.174527		-9.518771		-9.185455		18.622696		-41.674723		-3.696347		2.000201		15.426691		3.616635		-4.850075		131.309399		-10.664933		35.997419		52.465219		67.859410		-30.065672		-6.578954		24.286596		127.389397		-0.108356		23.096910		62.074598		115.524314		-22.188580		12.559082		72.757971		
0.551364		-2.608081		-14.436810		91.421619		0.023623		1.903508		1.510694		38.366810		-6.921444		3.019338		-106.146837		-9.706851		0.430626		14.052020		41.460890		-0.886762		3.286663		-108.094391		-10.720912		-9.642593		18.678467		-41.730886		-3.727873		2.172647		15.091441		3.608939		-5.001718		131.504191		-10.866464		36.475512		52.337716		68.051241		-29.978404		-6.545797		24.187682		127.413846		-0.079891		23.263578		61.897493		115.384313		-21.992376		12.585195		72.573856		
